<svg id="visual" viewBox="0 0 900 600" width="900" height="600" xmlns="http://www.w3.org/2000/svg" xmlns:xlink="http://www.w3.org/1999/xlink" version="1.1"><rect x="0" y="0" width="900" height="600" fill="#001220"></rect><path d="M0 338L21.5 342.3C43 346.7 86 355.3 128.8 363.2C171.7 371 214.3 378 257.2 380.5C300 383 343 381 385.8 379.2C428.7 377.3 471.3 375.7 514.2 381.8C557 388 600 402 642.8 398C685.7 394 728.3 372 771.2 358C814 344 857 338 878.5 335L900 332L900 601L878.5 601C857 601 814 601 771.2 601C728.3 601 685.7 601 642.8 601C600 601 557 601 514.2 601C471.3 601 428.7 601 385.8 601C343 601 300 601 257.2 601C214.3 601 171.7 601 128.8 601C86 601 43 601 21.5 601L0 601Z" fill="#190021"></path><path d="M0 439L21.5 437.8C43 436.7 86 434.3 128.8 428.8C171.7 423.3 214.3 414.7 257.2 408.3C300 402 343 398 385.8 402.2C428.7 406.3 471.3 418.7 514.2 424.8C557 431 600 431 642.8 431.7C685.7 432.3 728.3 433.7 771.2 430C814 426.3 857 417.7 878.5 413.3L900 409L900 601L878.5 601C857 601 814 601 771.2 601C728.3 601 685.7 601 642.8 601C600 601 557 601 514.2 601C471.3 601 428.7 601 385.8 601C343 601 300 601 257.2 601C214.3 601 171.7 601 128.8 601C86 601 43 601 21.5 601L0 601Z" fill="#472a49"></path><path d="M0 410L21.5 415C43 420 86 430 128.8 438.8C171.7 447.7 214.3 455.3 257.2 462.7C300 470 343 477 385.8 475.5C428.7 474 471.3 464 514.2 453C557 442 600 430 642.8 431.8C685.7 433.7 728.3 449.3 771.2 457.2C814 465 857 465 878.5 465L900 465L900 601L878.5 601C857 601 814 601 771.2 601C728.3 601 685.7 601 642.8 601C600 601 557 601 514.2 601C471.3 601 428.7 601 385.8 601C343 601 300 601 257.2 601C214.3 601 171.7 601 128.8 601C86 601 43 601 21.5 601L0 601Z" fill="#7d5274"></path><path d="M0 527L21.5 517C43 507 86 487 128.8 485.5C171.7 484 214.3 501 257.2 503C300 505 343 492 385.8 482.2C428.7 472.3 471.3 465.7 514.2 467.3C557 469 600 479 642.8 480.8C685.7 482.7 728.3 476.3 771.2 482.3C814 488.3 857 506.7 878.5 515.8L900 525L900 601L878.5 601C857 601 814 601 771.2 601C728.3 601 685.7 601 642.8 601C600 601 557 601 514.2 601C471.3 601 428.7 601 385.8 601C343 601 300 601 257.2 601C214.3 601 171.7 601 128.8 601C86 601 43 601 21.5 601L0 601Z" fill="#b87ea0"></path><path d="M0 545L21.5 546.8C43 548.7 86 552.3 128.8 556.3C171.7 560.3 214.3 564.7 257.2 562.5C300 560.3 343 551.7 385.8 542.8C428.7 534 471.3 525 514.2 523.8C557 522.7 600 529.3 642.8 530C685.7 530.7 728.3 525.3 771.2 526C814 526.7 857 533.3 878.5 536.7L900 540L900 601L878.5 601C857 601 814 601 771.2 601C728.3 601 685.7 601 642.8 601C600 601 557 601 514.2 601C471.3 601 428.7 601 385.8 601C343 601 300 601 257.2 601C214.3 601 171.7 601 128.8 601C86 601 43 601 21.5 601L0 601Z" fill="#f7aecc"></path></svg>