<svg id="visual" viewBox="0 0 900 600" width="900" height="600" xmlns="http://www.w3.org/2000/svg" xmlns:xlink="http://www.w3.org/1999/xlink" version="1.1"><rect x="0" y="0" width="900" height="600" fill="#001220"></rect><path d="M0 300L21.5 316.5C43 333 86 366 128.8 370.5C171.7 375 214.3 351 257.2 343C300 335 343 343 385.8 353.5C428.7 364 471.3 377 514.2 375.2C557 373.3 600 356.7 642.8 359.8C685.7 363 728.3 386 771.2 384.3C814 382.7 857 356.3 878.5 343.2L900 330L900 601L878.5 601C857 601 814 601 771.2 601C728.3 601 685.7 601 642.8 601C600 601 557 601 514.2 601C471.3 601 428.7 601 385.8 601C343 601 300 601 257.2 601C214.3 601 171.7 601 128.8 601C86 601 43 601 21.5 601L0 601Z" fill="#022d24"></path><path d="M0 401L21.5 393.3C43 385.7 86 370.3 128.8 380C171.7 389.7 214.3 424.3 257.2 420.7C300 417 343 375 385.8 356.2C428.7 337.3 471.3 341.7 514.2 349C557 356.3 600 366.7 642.8 386C685.7 405.3 728.3 433.7 771.2 446C814 458.3 857 454.7 878.5 452.8L900 451L900 601L878.5 601C857 601 814 601 771.2 601C728.3 601 685.7 601 642.8 601C600 601 557 601 514.2 601C471.3 601 428.7 601 385.8 601C343 601 300 601 257.2 601C214.3 601 171.7 601 128.8 601C86 601 43 601 21.5 601L0 601Z" fill="#38644e"></path><path d="M0 489L21.5 475C43 461 86 433 128.8 434.3C171.7 435.7 214.3 466.3 257.2 473.3C300 480.3 343 463.7 385.8 463.7C428.7 463.7 471.3 480.3 514.2 475.2C557 470 600 443 642.8 438.3C685.7 433.7 728.3 451.3 771.2 465.3C814 479.3 857 489.7 878.5 494.8L900 500L900 601L878.5 601C857 601 814 601 771.2 601C728.3 601 685.7 601 642.8 601C600 601 557 601 514.2 601C471.3 601 428.7 601 385.8 601C343 601 300 601 257.2 601C214.3 601 171.7 601 128.8 601C86 601 43 601 21.5 601L0 601Z" fill="#75a178"></path><path d="M0 527L21.5 531.2C43 535.3 86 543.7 128.8 544.3C171.7 545 214.3 538 257.2 530.2C300 522.3 343 513.7 385.8 515.3C428.7 517 471.3 529 514.2 525.8C557 522.7 600 504.3 642.8 494.8C685.7 485.3 728.3 484.7 771.2 491.5C814 498.3 857 512.7 878.5 519.8L900 527L900 601L878.5 601C857 601 814 601 771.2 601C728.3 601 685.7 601 642.8 601C600 601 557 601 514.2 601C471.3 601 428.7 601 385.8 601C343 601 300 601 257.2 601C214.3 601 171.7 601 128.8 601C86 601 43 601 21.5 601L0 601Z" fill="#bfe0a3"></path></svg>