<svg id="visual" viewBox="0 0 900 600" width="900" height="600" xmlns="http://www.w3.org/2000/svg" xmlns:xlink="http://www.w3.org/1999/xlink" version="1.1"><path d="M0 333L21.5 337.5C43 342 86 351 128.8 345.7C171.7 340.3 214.3 320.7 257.2 315.7C300 310.7 343 320.3 385.8 324.5C428.7 328.7 471.3 327.3 514.2 323C557 318.7 600 311.3 642.8 317.7C685.7 324 728.3 344 771.2 354.7C814 365.3 857 366.7 878.5 367.3L900 368L900 601L878.5 601C857 601 814 601 771.2 601C728.3 601 685.7 601 642.8 601C600 601 557 601 514.2 601C471.3 601 428.7 601 385.8 601C343 601 300 601 257.2 601C214.3 601 171.7 601 128.8 601C86 601 43 601 21.5 601L0 601Z" fill="#002119"></path><path d="M0 331L21.5 344.2C43 357.3 86 383.7 128.8 384.8C171.7 386 214.3 362 257.2 357.3C300 352.7 343 367.3 385.8 362.5C428.7 357.7 471.3 333.3 514.2 323.8C557 314.3 600 319.7 642.8 334.7C685.7 349.7 728.3 374.3 771.2 373.7C814 373 857 347 878.5 334L900 321L900 601L878.5 601C857 601 814 601 771.2 601C728.3 601 685.7 601 642.8 601C600 601 557 601 514.2 601C471.3 601 428.7 601 385.8 601C343 601 300 601 257.2 601C214.3 601 171.7 601 128.8 601C86 601 43 601 21.5 601L0 601Z" fill="#164133"></path><path d="M0 381L21.5 384.5C43 388 86 395 128.8 399.3C171.7 403.7 214.3 405.3 257.2 398.8C300 392.3 343 377.7 385.8 369.3C428.7 361 471.3 359 514.2 362.8C557 366.7 600 376.3 642.8 385C685.7 393.7 728.3 401.3 771.2 399.8C814 398.3 857 387.7 878.5 382.3L900 377L900 601L878.5 601C857 601 814 601 771.2 601C728.3 601 685.7 601 642.8 601C600 601 557 601 514.2 601C471.3 601 428.7 601 385.8 601C343 601 300 601 257.2 601C214.3 601 171.7 601 128.8 601C86 601 43 601 21.5 601L0 601Z" fill="#33654d"></path><path d="M0 405L21.5 411.2C43 417.3 86 429.7 128.8 443.8C171.7 458 214.3 474 257.2 468.7C300 463.3 343 436.7 385.8 428C428.7 419.3 471.3 428.7 514.2 434.2C557 439.7 600 441.3 642.8 439.7C685.7 438 728.3 433 771.2 434C814 435 857 442 878.5 445.5L900 449L900 601L878.5 601C857 601 814 601 771.2 601C728.3 601 685.7 601 642.8 601C600 601 557 601 514.2 601C471.3 601 428.7 601 385.8 601C343 601 300 601 257.2 601C214.3 601 171.7 601 128.8 601C86 601 43 601 21.5 601L0 601Z" fill="#528a67"></path><path d="M0 492L21.5 496.5C43 501 86 510 128.8 508.2C171.7 506.3 214.3 493.7 257.2 494C300 494.3 343 507.7 385.8 516C428.7 524.3 471.3 527.7 514.2 517.5C557 507.3 600 483.7 642.8 472.7C685.7 461.7 728.3 463.3 771.2 465.3C814 467.3 857 469.7 878.5 470.8L900 472L900 601L878.5 601C857 601 814 601 771.2 601C728.3 601 685.7 601 642.8 601C600 601 557 601 514.2 601C471.3 601 428.7 601 385.8 601C343 601 300 601 257.2 601C214.3 601 171.7 601 128.8 601C86 601 43 601 21.5 601L0 601Z" fill="#75b082"></path><path d="M0 537L21.5 532.3C43 527.7 86 518.3 128.8 515.2C171.7 512 214.3 515 257.2 523.5C300 532 343 546 385.8 553C428.7 560 471.3 560 514.2 555.3C557 550.7 600 541.3 642.8 535.8C685.7 530.3 728.3 528.7 771.2 529.3C814 530 857 533 878.5 534.5L900 536L900 601L878.5 601C857 601 814 601 771.2 601C728.3 601 685.7 601 642.8 601C600 601 557 601 514.2 601C471.3 601 428.7 601 385.8 601C343 601 300 601 257.2 601C214.3 601 171.7 601 128.8 601C86 601 43 601 21.5 601L0 601Z" fill="#9cd89c"></path></svg>